<?xml version="1.0" encoding="UTF-8"?> <svg xmlns="http://www.w3.org/2000/svg" id="Capa_1" data-name="Capa 1" viewBox="0 0 195.5 61.1"> <defs> <style> .cls-1 { fill: #222; } </style> </defs> <title>digitis-logo</title> <g> <path class="cls-1" d="M348.7,267.5H337.2v-4.3H337a11.8,11.8,0,0,1-10.2,5.3c-11.6,0-16.5-10-16.5-20.4s5.1-18.7,15.6-18.7a12.4,12.4,0,0,1,10.5,5.1h0.1v-15h12.1v48Zm-26.3-18.9c0,5.1,1.9,10.7,7.4,10.7s7.2-5.6,7.2-10.3-1.9-10.3-7.2-10.3S322.4,243.9,322.4,248.6Z" transform="translate(-310.3 -219.4)"></path> <path class="cls-1" d="M353.1,230.5h12.1v37H353.1v-37Z" transform="translate(-310.3 -219.4)"></path> <path class="cls-1" d="M406.6,263c0,6.1-1.1,17.4-18.4,17.4-8.6,0-16.7-1.9-18.2-11.8h12.1a4,4,0,0,0,2.1,3.2,9.6,9.6,0,0,0,4.4.8c5.8,0,6.3-4.1,6.3-8.6v-3.5h-0.1a11.7,11.7,0,0,1-9.8,5.4c-11.2,0-16.2-8-16.2-18.4s5.8-18.1,16.2-18.1a10.7,10.7,0,0,1,9.9,5.7H395v-4.6h11.6V263Zm-18.7-24.3c-5.3,0-7.1,4.7-7.1,9.3s2,8.7,7,8.7,7.3-4,7.3-8.6S393.3,238.7,387.9,238.7Z" transform="translate(-310.3 -219.4)"></path> <path class="cls-1" d="M411.2,230.5h12.1v37H411.2v-37Z" transform="translate(-310.3 -219.4)"></path> <path class="cls-1" d="M451.3,238.4h-7.5v16.8c0,2.9,1.7,3.6,4.3,3.6h3.1v8.9c-2.2.1-4.4,0.4-6.6,0.4-10.3,0-13-3-13-13V238.4h-6.1v-7.8h6.1V219.4h12.1v11.2h7.5v7.8Z" transform="translate(-310.3 -219.4)"></path> <path class="cls-1" d="M454.3,230.5h12.1v37H454.3v-37Z" transform="translate(-310.3 -219.4)"></path> <path class="cls-1" d="M481.5,255.3a5,5,0,0,0,2,4.1,7.6,7.6,0,0,0,4.5,1.3c2.4,0,5.7-1,5.7-3.9s-3.8-3.4-5.9-3.9c-7.6-1.9-17.2-2.1-17.2-12.1s9.6-11.3,16.9-11.3,16.6,2.4,17,12H493.3a3.5,3.5,0,0,0-1.6-3.2,7.2,7.2,0,0,0-3.8-.9c-2,0-5.2.2-5.2,2.8s8.1,4.1,13.7,5.3c7.5,1.5,9.4,6.9,9.4,10,0,9.9-9.4,13.2-17.7,13.2s-17.7-2.9-18.1-13.2h11.5Z" transform="translate(-310.3 -219.4)"></path> </g> </svg> 